# Blender v2.76 (sub 0) OBJ File: ''
# www.blender.org
mtllib hovercraft1.mtl
o Cylinder
v -0.435669 1.365348 -0.735654
v -0.067405 1.354701 -0.735654
v -0.414104 2.111299 -0.735654
v -0.045839 2.100652 -0.735654
v -0.415745 2.054516 -0.449892
v -0.047481 2.043870 -0.449892
v -0.420420 1.892815 -0.207634
v -0.052156 1.882168 -0.207634
v -0.427416 1.650811 -0.045763
v -0.059152 1.640164 -0.045763
v -0.435669 1.365348 0.011079
v -0.067405 1.354701 0.011079
v -0.443921 1.079885 -0.045763
v -0.075657 1.069238 -0.045763
v -0.450918 0.837881 -0.207634
v -0.082654 0.827234 -0.207634
v -0.455592 0.676179 -0.449892
v -0.087328 0.665533 -0.449892
v -0.457234 0.619397 -0.735654
v -0.088970 0.608750 -0.735654
v -0.455593 0.676179 -1.021416
v -0.087328 0.665533 -1.021416
v -0.450918 0.837881 -1.263673
v -0.082654 0.827234 -1.263673
v -0.443922 1.079885 -1.425545
v -0.075657 1.069238 -1.425545
v -0.435669 1.365348 -1.482386
v -0.067405 1.354701 -1.482386
v -0.427416 1.650811 -1.425545
v -0.059152 1.640164 -1.425545
v -0.420420 1.892815 -1.263673
v -0.052156 1.882168 -1.263673
v -0.415745 2.054517 -1.021416
v -0.047481 2.043870 -1.021416
v -1.235762 0.664313 0.936711
v -1.235762 0.953975 0.435002
v -1.235762 0.374650 0.435002
v -3.409573 0.664313 0.446887
v -2.757430 0.953975 0.092125
v -2.757430 0.374651 0.092125
v -4.309996 0.664313 -0.735653
v -3.387726 0.953975 -0.735653
v -3.387725 0.374651 -0.735653
v -3.409572 0.664313 -1.918194
v -2.757430 0.953975 -1.563432
v -2.757430 0.374651 -1.563432
v -1.235763 0.664313 -2.408019
v -1.235762 0.953975 -1.906309
v -1.235762 0.374650 -1.906309
v 0.938048 0.664312 -1.918195
v 0.285905 0.953974 -1.563432
v 0.285905 0.374650 -1.563432
v 1.838471 0.664312 -0.735654
v 0.916201 0.953974 -0.735654
v 0.916201 0.374650 -0.735654
v 0.938050 0.664312 0.446886
v 0.285906 0.953974 0.092124
v 0.285906 0.374650 0.092124
v -1.235762 0.358512 -0.735654
v 1.144966 0.358512 -0.735654
v 0.963744 0.358512 -1.247643
v 0.447667 0.358512 -1.681686
v -0.324697 0.358512 -1.971704
v -1.235762 0.358512 -2.073545
v -2.146827 0.358513 -1.971704
v -2.919191 0.358513 -1.681686
v -3.435268 0.358513 -1.247643
v -3.616490 0.358513 -0.735654
v -3.435268 0.358513 -0.223665
v -2.919191 0.358513 0.210379
v -2.146827 0.358513 0.500397
v -1.235762 0.358512 0.602238
v -0.324696 0.358512 0.500397
v 0.447668 0.358512 0.210378
v 0.963745 0.358512 -0.223665
v -1.235762 0.615143 -0.735654
v 1.144966 0.615143 -0.735654
v 0.963744 0.615143 -1.247643
v 0.447667 0.615143 -1.681686
v -0.324697 0.615143 -1.971704
v -1.235762 0.615143 -2.073545
v -2.146827 0.615143 -1.971704
v -2.919191 0.615143 -1.681686
v -3.435268 0.615143 -1.247643
v -3.616490 0.615143 -0.735654
v -3.435268 0.615143 -0.223665
v -2.919191 0.615143 0.210379
v -2.146827 0.615143 0.500397
v -1.235762 0.615143 0.602238
v -0.324696 0.615143 0.500397
v 0.447668 0.615143 0.210378
v 0.963745 0.615143 -0.223665
vn 0.999600 -0.028900 -0.000000
vn -0.999600 0.028900 0.000000
vn -0.028300 -0.980400 -0.195000
vn -0.024000 -0.831300 -0.555300
vn -0.016100 -0.555600 -0.831300
vn -0.005600 -0.195100 -0.980800
vn 0.005600 0.195100 -0.980800
vn 0.016100 0.555600 -0.831300
vn 0.024000 0.831300 -0.555300
vn 0.028300 0.980400 -0.195000
vn 0.028300 0.980400 0.195000
vn 0.024000 0.831300 0.555300
vn 0.016100 0.555600 0.831300
vn 0.005600 0.195100 0.980800
vn -0.005600 -0.195100 0.980800
vn -0.016100 -0.555600 0.831300
vn -0.024000 -0.831300 0.555300
vn -0.028300 -0.980400 0.195000
vn 0.112000 -0.860600 -0.496900
vn -0.219800 0.000000 0.975500
vn 0.112000 0.860600 -0.496900
vn 0.292100 -0.930100 -0.222400
vn -0.795600 0.000000 0.605800
vn 0.292100 0.930100 -0.222400
vn 0.292100 -0.930100 0.222400
vn -0.795600 0.000000 -0.605800
vn 0.292100 0.930100 0.222400
vn 0.112000 -0.860600 0.496900
vn -0.219800 0.000000 -0.975500
vn 0.112000 0.860600 0.496900
vn -0.112000 -0.860600 0.496900
vn 0.219800 -0.000000 -0.975500
vn -0.112000 0.860600 0.496900
vn -0.292100 -0.930100 0.222400
vn 0.795600 -0.000000 -0.605800
vn -0.292100 0.930100 0.222400
vn -0.292100 -0.930100 -0.222400
vn 0.795600 -0.000000 0.605800
vn -0.292100 0.930100 -0.222400
vn -0.112000 -0.860600 -0.496900
vn 0.219800 -0.000000 0.975500
vn -0.112000 0.860600 -0.496900
vn -0.000000 -1.000000 0.000000
vn 0.000000 1.000000 -0.000000
vn 0.351500 -0.000000 0.936200
vn 0.351500 -0.000000 -0.936200
vn -0.643700 0.000000 -0.765300
vn -0.351500 0.000000 0.936200
vn 0.643700 0.000000 0.765300
vn 0.111100 0.000000 -0.993800
vn 0.942700 -0.000000 -0.333700
vn -0.942700 0.000000 -0.333700
vn -0.111100 0.000000 0.993800
vn 0.942700 0.000000 0.333700
vn -0.111100 -0.000000 -0.993800
vn -0.942700 0.000000 0.333700
vn 0.111100 -0.000000 0.993800
vn 0.643700 -0.000000 -0.765300
vn -0.351500 0.000000 -0.936200
vn -0.643700 0.000000 0.765300
usemtl None
s off
f 1//1 3//1 5//1
f 2//2 6//2 4//2
f 3//3 4//3 6//3 5//3
f 1//1 5//1 7//1
f 2//2 8//2 6//2
f 5//4 6//4 8//4 7//4
f 1//1 7//1 9//1
f 2//2 10//2 8//2
f 7//5 8//5 10//5 9//5
f 1//1 9//1 11//1
f 2//2 12//2 10//2
f 9//6 10//6 12//6 11//6
f 1//1 11//1 13//1
f 2//2 14//2 12//2
f 11//7 12//7 14//7 13//7
f 1//1 13//1 15//1
f 2//2 16//2 14//2
f 13//8 14//8 16//8 15//8
f 1//1 15//1 17//1
f 2//2 18//2 16//2
f 15//9 16//9 18//9 17//9
f 1//1 17//1 19//1
f 2//2 20//2 18//2
f 17//10 18//10 20//10 19//10
f 1//1 19//1 21//1
f 2//2 22//2 20//2
f 19//11 20//11 22//11 21//11
f 1//1 21//1 23//1
f 2//2 24//2 22//2
f 21//12 22//12 24//12 23//12
f 1//1 23//1 25//1
f 2//2 26//2 24//2
f 23//13 24//13 26//13 25//13
f 1//1 25//1 27//1
f 2//2 28//2 26//2
f 25//14 26//14 28//14 27//14
f 1//1 27//1 29//1
f 2//2 30//2 28//2
f 27//15 28//15 30//15 29//15
f 1//1 29//1 31//1
f 2//2 32//2 30//2
f 29//16 30//16 32//16 31//16
f 1//1 31//1 33//1
f 2//2 34//2 32//2
f 31//17 32//17 34//17 33//17
f 1//1 33//1 3//1
f 2//2 4//2 34//2
f 33//18 34//18 4//18 3//18
f 35//19 38//19 39//19 36//19
f 36//20 39//20 40//20 37//20
f 35//21 37//21 40//21 38//21
f 38//22 41//22 42//22 39//22
f 39//23 42//23 43//23 40//23
f 40//24 43//24 41//24 38//24
f 41//25 44//25 45//25 42//25
f 42//26 45//26 46//26 43//26
f 43//27 46//27 44//27 41//27
f 44//28 47//28 48//28 45//28
f 45//29 48//29 49//29 46//29
f 46//30 49//30 47//30 44//30
f 47//31 50//31 51//31 48//31
f 48//32 51//32 52//32 49//32
f 49//33 52//33 50//33 47//33
f 50//34 53//34 54//34 51//34
f 51//35 54//35 55//35 52//35
f 52//36 55//36 53//36 50//36
f 53//37 56//37 57//37 54//37
f 54//38 57//38 58//38 55//38
f 55//39 58//39 56//39 53//39
f 56//40 35//40 36//40 57//40
f 57//41 36//41 37//41 58//41
f 58//42 37//42 35//42 56//42
f 59//43 61//43 60//43
f 59//43 62//43 61//43
f 59//43 63//43 62//43
f 59//43 64//43 63//43
f 59//43 65//43 64//43
f 59//43 66//43 65//43
f 59//43 67//43 66//43
f 59//43 68//43 67//43
f 59//43 69//43 68//43
f 59//43 70//43 69//43
f 59//43 71//43 70//43
f 59//43 72//43 71//43
f 59//43 73//43 72//43
f 59//43 74//43 73//43
f 59//43 75//43 74//43
f 59//43 60//43 75//43
f 76//44 77//44 78//44
f 76//44 78//44 79//44
f 76//44 79//44 80//44
f 76//44 80//44 81//44
f 76//44 81//44 82//44
f 76//44 82//44 83//44
f 76//44 83//44 84//44
f 76//44 84//44 85//44
f 76//44 85//44 86//44
f 76//44 86//44 87//44
f 76//44 87//44 88//44
f 76//44 88//44 89//44
f 76//44 89//44 90//44
f 76//44 90//44 91//44
f 76//44 91//44 92//44
f 76//44 92//44 77//44
f 73//45 74//45 91//45 90//45
f 62//46 63//46 80//46 79//46
f 66//47 67//47 84//47 83//47
f 70//48 71//48 88//48 87//48
f 74//49 75//49 92//49 91//49
f 63//50 64//50 81//50 80//50
f 60//51 61//51 78//51 77//51
f 67//52 68//52 85//52 84//52
f 71//53 72//53 89//53 88//53
f 75//54 60//54 77//54 92//54
f 64//55 65//55 82//55 81//55
f 68//56 69//56 86//56 85//56
f 72//57 73//57 90//57 89//57
f 61//58 62//58 79//58 78//58
f 65//59 66//59 83//59 82//59
f 69//60 70//60 87//60 86//60
